<?xml version="1.0" encoding="UTF-8"?>
<svg version="1.1" xmlns="http://www.w3.org/2000/svg" width="22" height="32">
<path d="M0 0 C7.26 0 14.52 0 22 0 C22 10.56 22 21.12 22 32 C14.74 32 7.48 32 0 32 C0 21.44 0 10.88 0 0 Z " fill="#F0F0F0" transform="translate(0,0)"/>
<path d="M0 0 C2.4375 0.75 2.4375 0.75 5 2 C5.8125 4.125 5.8125 4.125 6 6 C6.66 6 7.32 6 8 6 C8 12.6 8 19.2 8 26 C0.74 26 -6.52 26 -14 26 C-14 23.36 -14 20.72 -14 18 C-12.68 18 -11.36 18 -10 18 C-10 19.32 -10 20.64 -10 22 C-8.37258256 21.21331482 -6.74813869 20.4204759 -5.125 19.625 C-4.22007813 19.18414063 -3.31515625 18.74328125 -2.3828125 18.2890625 C0.09534472 17.09497301 0.09534472 17.09497301 2 15 C2.64767793 12.42938689 2.64767793 12.42938689 3 10 C2.05125 9.690625 1.1025 9.38125 0.125 9.0625 C-3 8 -3 8 -5 7 C-5 5 -5 5 -2.5 2.375 C-1.675 1.59125 -0.85 0.8075 0 0 Z " fill="#F7F7F7" transform="translate(14,6)"/>
<path d="M0 0 C0.33 0.66 0.66 1.32 1 2 C2.98248715 2.71706982 4.98415349 3.38290413 7 4 C7.66 4.33 8.32 4.66 9 5 C9.33845682 8.04611136 9.30302214 9.55205423 7.5625 12.125 C4.00341583 14.72920793 0.21283353 15.8117649 -4 17 C-4.33 15.35 -4.66 13.7 -5 12 C-4.37351562 11.79503906 -3.74703125 11.59007812 -3.1015625 11.37890625 C-2.28429687 11.10949219 -1.46703125 10.84007812 -0.625 10.5625 C0.18710938 10.29566406 0.99921875 10.02882813 1.8359375 9.75390625 C4.01031799 9.04820271 4.01031799 9.04820271 6 8 C3.69 7.01 1.38 6.02 -1 5 C-0.67 3.35 -0.34 1.7 0 0 Z " fill="#1B1B1B" transform="translate(8,11)"/>
<path d="M0 0 C0.33 0.66 0.66 1.32 1 2 C2.98248715 2.71706982 4.98415349 3.38290413 7 4 C7.66 4.33 8.32 4.66 9 5 C9 6.65 9 8.3 9 10 C8.34 10 7.68 10 7 10 C6.566875 9.54625 6.13375 9.0925 5.6875 8.625 C3.64371183 6.65690769 1.65469676 5.93273129 -1 5 C-0.67 3.35 -0.34 1.7 0 0 Z " fill="#0A0A0A" transform="translate(8,11)"/>
<path d="M0 0 C0.33 0.66 0.66 1.32 1 2 C3.01669827 3.13350534 3.01669827 3.13350534 5 4 C4.34 4.66 3.68 5.32 3 6 C0.875 5.625 0.875 5.625 -1 5 C-0.67 3.35 -0.34 1.7 0 0 Z " fill="#131313" transform="translate(8,11)"/>
<path d="M0 0 C1.98 0 3.96 0 6 0 C4.35 1.98 2.7 3.96 1 6 C0.34 5.67 -0.32 5.34 -1 5 C-0.67 3.35 -0.34 1.7 0 0 Z " fill="#242424" transform="translate(10,5)"/>
</svg>
